<svg width="525" height="532" viewBox="0 0 525 532" fill="none" xmlns="http://www.w3.org/2000/svg">
<g clip-path="url(#clip0_101_373)">
<path d="M117.675 88.7438L113.675 109.744L133.618 115.366L131.14 92.946L117.675 88.7438Z" fill="#A0616A"/>
<path d="M0 523.445C0 524.105 0.53003 524.635 1.19006 524.635H523.48C524.14 524.635 524.67 524.105 524.67 523.445C524.67 522.785 524.14 522.255 523.48 522.255H1.19006C0.53003 522.255 0 522.785 0 523.445Z" fill="#3F3D56"/>
<path d="M356.038 238.309H150.369C127.046 238.309 108.139 257.216 108.139 280.539V479.971C108.139 503.294 127.046 522.201 150.369 522.201H356.038C379.361 522.201 398.268 503.294 398.268 479.971V280.539C398.268 257.216 379.361 238.309 356.038 238.309Z" fill="white"/>
<path d="M356.038 523.201H150.369C126.532 523.201 107.139 503.808 107.139 479.971V280.539C107.139 256.702 126.532 237.309 150.369 237.309H356.038C379.875 237.309 399.268 256.702 399.268 280.539V479.971C399.268 503.808 379.875 523.201 356.038 523.201ZM150.369 239.309C127.635 239.309 109.139 257.804 109.139 280.539V479.971C109.139 502.706 127.635 521.201 150.369 521.201H356.038C378.772 521.201 397.268 502.706 397.268 479.971V280.539C397.268 257.804 378.772 239.309 356.038 239.309L150.369 239.309Z" fill="#3F3D56"/>
<path d="M370.936 324.77H288.268C284.761 324.77 281.909 321.917 281.909 318.411C281.909 314.905 284.761 312.052 288.268 312.052H370.936C374.442 312.052 377.295 314.905 377.295 318.411C377.295 321.917 374.442 324.77 370.936 324.77Z" fill="#4B83A7"/>
<path d="M293.382 374.777H213.025C210.999 374.777 209.351 373.129 209.351 371.103C209.351 369.077 210.999 367.43 213.025 367.43H293.382C295.408 367.43 297.056 369.077 297.056 371.103C297.056 373.129 295.408 374.777 293.382 374.777Z" fill="#4B83A7"/>
<path d="M179.806 251.967H133.928C133.757 251.967 133.618 252.106 133.618 252.277V257.618C133.618 257.789 133.757 257.928 133.928 257.928H179.806C179.977 257.928 180.116 257.789 180.116 257.618V252.277C180.116 252.106 179.977 251.967 179.806 251.967Z" fill="#4B83A7"/>
<path d="M334.336 257.928C336.97 257.928 339.105 255.793 339.105 253.159C339.105 250.525 336.97 248.39 334.336 248.39C331.703 248.39 329.567 250.525 329.567 253.159C329.567 255.793 331.703 257.928 334.336 257.928Z" fill="#3F3D56"/>
<path d="M347.451 257.928C350.085 257.928 352.22 255.793 352.22 253.159C352.22 250.525 350.085 248.39 347.451 248.39C344.817 248.39 342.682 250.525 342.682 253.159C342.682 255.793 344.817 257.928 347.451 257.928Z" fill="#3F3D56"/>
<path d="M360.566 257.928C363.2 257.928 365.335 255.793 365.335 253.159C365.335 250.525 363.2 248.39 360.566 248.39C357.932 248.39 355.797 250.525 355.797 253.159C355.797 255.793 357.932 257.928 360.566 257.928Z" fill="#3F3D56"/>
<path d="M149.868 394.445C149.868 395.105 150.398 395.635 151.058 395.635H355.348C356.008 395.635 356.538 395.105 356.538 394.445C356.538 393.785 356.008 393.255 355.348 393.255H151.058C150.398 393.255 149.868 393.785 149.868 394.445Z" fill="#3F3D56"/>
<path d="M212.173 100.917C216.522 97.3234 221.902 96.6544 224.188 99.4226C226.475 102.191 224.803 107.347 220.451 110.941C218.733 112.401 216.69 113.428 214.493 113.936L195.874 128.93L189.024 120.042L208.107 106.205C209.02 104.143 210.415 102.33 212.173 100.917Z" fill="#A0616A"/>
<path d="M104.553 134.747C104.543 134.084 104.55 128.3 108.832 124.644C113.751 120.445 120.691 122.144 123.126 122.741C128.75 124.118 129.211 126.53 134.492 129.009C144.372 133.646 131.992 131.273 137.872 129.786C139.907 129.271 169.184 127.24 176.471 122.755C190.645 114.032 200.302 108.742 200.302 108.742L206.616 121.368C206.616 121.368 197.487 134.062 184.639 143.465C171.459 153.111 164.87 157.934 154.855 159.798C153.993 159.958 132.783 163.579 115.7 150.817C111.803 147.906 104.664 142.572 104.553 134.747Z" fill="#E6E6E6"/>
<path d="M124.137 102.635C136.283 102.635 146.129 92.7888 146.129 80.6426C146.129 68.4963 136.283 58.6499 124.137 58.6499C111.99 58.6499 102.144 68.4963 102.144 80.6426C102.144 92.7888 111.99 102.635 124.137 102.635Z" fill="#A0616A"/>
<path d="M296.375 228.398L273.725 205.213L262.033 217.409L278.908 239.639L295.646 241.553L296.375 228.398Z" fill="#A0616A"/>
<path d="M167.046 184.922C168.371 185.032 172.58 185.875 176.604 183.662C179.35 182.151 180.759 179.904 181.234 179.19C187.136 170.326 209.787 156.505 230.115 155.655C234.719 155.462 237.749 155.996 240.503 157.431C244.409 159.467 245.968 162.383 250.924 169.214C253.634 172.951 256.634 176.471 259.377 180.184C275.439 201.92 281.528 203.626 280.906 210.595C280.216 218.326 271.877 225.662 266.335 224.815C264.065 224.468 263.186 222.89 260.154 219.695C251.263 210.327 247.584 212.058 241.254 204.883C233.864 196.506 234.831 189.56 230.975 189.292C227.4 189.043 225.88 194.968 218.246 202.84C214.753 206.442 212.266 208.094 204.688 213.351C175.177 233.824 174.706 235.263 168.751 236.896C166.145 237.61 147.651 242.68 141.063 234.612C130.753 221.985 155.109 183.93 167.046 184.922Z" fill="#2F2E41"/>
<path d="M289.45 233.637C291.116 232.889 293.064 232.014 293.69 230.003C294.114 228.642 293.87 226.964 292.994 225.805C291.983 224.467 290.486 224.29 290.546 224.054C290.639 223.693 294.178 223.834 298.063 225.208C298.797 225.467 302.118 226.681 306.344 229.979C309.729 232.622 309.273 233.152 311.396 234.676C317.913 239.354 324.024 235.667 327.551 240.054C328.911 241.747 329.492 244.151 328.919 246.094C327.769 249.998 322.176 251.341 319.12 252.034C311.758 253.704 306.186 252.341 300.368 251.361C280.581 248.026 269.464 251.063 267.976 246.479C267.694 245.612 268.152 245.685 269.678 239.319C271.183 233.035 271.134 231.309 272.416 230.806C274.347 230.049 275.643 233.494 280.506 234.673C284.815 235.718 288.371 234.122 289.45 233.637Z" fill="#2F2E41"/>
<path d="M256.108 304.243L250.386 272.34L233.863 275.866L235.343 303.736L248.118 314.719L256.108 304.243Z" fill="#A0616A"/>
<path d="M173.508 195.645C174.542 196.48 177.552 199.542 182.125 199.97C185.245 200.262 187.672 199.194 188.467 198.87C198.327 194.85 224.831 196.132 242.129 206.844C246.047 209.27 248.255 211.413 249.727 214.147C251.816 218.025 251.468 221.313 251.733 229.748C251.878 234.362 252.383 238.96 252.569 243.572C253.653 270.577 257.734 275.409 253.305 280.825C248.393 286.835 237.374 288.222 233.263 284.409C231.58 282.848 231.739 281.049 231.024 276.702C228.927 263.958 224.912 263.325 223.703 253.833C222.292 242.751 226.993 237.547 223.953 235.16C221.134 232.946 216.549 236.996 205.812 239.223C200.899 240.241 197.913 240.212 188.691 240.307C152.776 240.676 151.578 241.602 145.733 239.608C143.176 238.736 125.026 232.547 124.106 222.171C122.665 205.934 164.188 188.122 173.508 195.645Z" fill="#2F2E41"/>
<path d="M247.436 304.689C249.235 305.006 251.338 305.376 252.986 304.063C254.101 303.175 254.841 301.65 254.767 300.198C254.681 298.523 253.542 297.537 253.725 297.375C254.003 297.129 256.853 299.233 259.297 302.551C259.758 303.177 261.825 306.047 263.469 311.149C264.786 315.237 264.111 315.419 265.012 317.872C267.777 325.402 274.905 325.784 275.359 331.394C275.534 333.559 274.665 335.874 273.1 337.16C269.956 339.744 264.574 337.715 261.655 336.573C254.626 333.821 250.781 329.564 246.518 325.485C232.018 311.616 221.113 307.886 222.456 303.257C222.71 302.381 223.047 302.699 227.885 298.288C232.659 293.934 233.588 292.478 234.931 292.782C236.954 293.239 236.092 296.818 239.453 300.524C242.432 303.809 246.271 304.484 247.436 304.689Z" fill="#2F2E41"/>
<path d="M127.135 84.8469C127.991 81.7842 126.916 80.6681 128.012 79.2933C128.012 79.2933 128.453 78.7401 132.396 77.2473C131.233 70.4969 132.104 69.3554 132.104 69.3554C133.108 68.0399 135.119 67.7219 136.488 67.8939C139.384 68.2579 139.897 70.8756 141.75 70.8169C144.309 70.7357 147.379 65.612 146.426 61.1712C145.649 57.5487 142.298 54.8586 141.457 55.3254C140.624 55.7882 137.626 53.7473 136.488 54.1562C135.712 54.4355 132.056 54.0639 131.227 54.4485C130.322 54.8685 127.73 57.4833 127.482 57.1538C125.759 54.8644 125.796 54.065 124.797 53.5716C123.026 52.6973 121.101 54.3133 117.782 55.9099C110.952 59.195 108.952 57.2354 105.798 60.002C104.204 61.3996 103.35 64.0705 101.706 69.3554C99.4065 76.7462 98.2569 80.4416 99.3673 83.97C100.5 87.5684 102.167 86.7852 104.629 91.8619C107.368 97.5132 106.424 100.798 109.013 102.092C111.014 103.092 114.229 102.456 115.443 100.631C117.522 97.5059 112.149 93.2789 113.982 88.3544C115.107 85.3316 118.577 83.0395 120.705 83.6777C123.111 84.3994 123.288 88.7135 124.797 88.6467C126.089 88.5896 126.986 85.3806 127.135 84.8469Z" fill="#2F2E41"/>
<path d="M110.474 105.892C114.975 100.846 133.306 106.069 135.027 114.076C135.734 117.37 133.122 118.76 133.858 122.553C134.934 128.099 141.027 127.721 145.549 133.367C151.97 141.383 145.355 149.219 152.564 162.597C154.105 165.455 155.403 167.865 158.118 170.196C164.347 175.547 170.145 173.712 173.317 178.673C175.689 182.383 174.715 186.955 174.486 188.026C173.55 192.418 171.013 193.488 169.225 197.087C166.25 203.075 169.618 207.471 169.81 214.625C170.049 223.576 165.292 235.983 155.78 240.054C145.092 244.628 132.203 237.053 125.966 229.532C122.244 225.044 121.163 220.904 119.535 215.794C112.258 192.957 108.147 195.022 102.582 176.919C96.2206 156.224 94.9699 131.979 102.582 124.306C103.591 123.289 106.368 120.939 108.136 116.707C110.515 111.012 108.46 108.151 110.474 105.892Z" fill="#E6E6E6"/>
<path d="M176.973 223.359C180.463 227.792 181.003 233.186 178.182 235.406C175.36 237.626 170.245 235.832 166.755 231.396C165.337 229.644 164.359 227.577 163.903 225.369L149.356 206.398L156.872 200.665L171.784 219.168C173.824 220.13 175.603 221.567 176.973 223.359Z" fill="#A0616A"/>
<path d="M123.698 125.123C124.345 124.979 130.008 123.804 134.461 127.25C139.576 131.209 139.328 138.351 139.241 140.856C139.04 146.642 136.773 147.586 135.424 153.261C132.9 163.88 137.707 173.749 140.362 179.201C141.281 181.088 144.234 186.863 150.112 193.082C161.544 205.177 171.744 211.542 171.744 211.542L160.786 221.282C160.786 221.282 143.331 215.962 131.504 205.303C119.372 194.369 100.715 155.684 96.8471 146.26C96.514 145.449 101.232 158.642 110.241 139.315C112.295 134.906 116.06 126.829 123.698 125.123Z" fill="#E6E6E6"/>
<path d="M273.945 421.686C266.98 422.754 261.885 427.213 262.565 431.645C263.245 436.078 269.442 438.805 276.41 437.736C279.199 437.347 281.854 436.296 284.154 434.67L313.608 429.774L311.642 418.132L282.254 422.29C279.573 421.428 276.723 421.221 273.945 421.686Z" fill="#FFB6B6"/>
<path d="M400.87 385.395L389.449 409.63L332.034 428.958L284.392 431.499L283.198 420.056L334.832 409.26L387.815 384.223L400.87 385.395Z" fill="#E6E6E6"/>
<path d="M294.976 477.416L284.722 503.351L271.453 494.304L279.294 467.162L294.976 477.416Z" fill="#FFB6B6"/>
<path d="M252.152 467.765L225.01 493.701L235.867 505.161L263.612 483.447L252.152 467.765Z" fill="#FFB6B6"/>
<path d="M405.957 383.323L405.655 381.212L398.719 367.641L375.799 373.673L380.021 392.37L405.957 383.323Z" fill="#FFB6B6"/>
<path d="M396.306 473.797L397.011 482.856C397.011 482.856 399.925 520.843 376.402 523.859C352.879 526.875 342.625 529.89 328.753 506.367L307.039 467.765L294.356 482.856L277.484 469.575C277.484 469.575 289.548 422.528 299.198 420.719C300.404 420.493 301.611 420.38 302.798 420.355C310.788 420.188 318.319 424.096 323.099 430.5L350.466 467.162L360.418 462.638L396.306 473.797Z" fill="#2F2E41"/>
<path d="M266.024 502.145L271.453 491.891L287.135 502.748C287.135 502.748 290.754 516.018 285.325 517.827C279.897 519.637 264.818 517.224 264.818 517.224C264.818 517.224 237.073 523.256 236.47 517.827C235.867 512.399 249.136 511.192 249.136 511.192L266.024 502.145Z" fill="#2F2E41"/>
<path d="M325.134 494.907L283.214 468.494L261.802 487.669L247.326 470.781C247.326 470.781 273.865 431.576 281.706 429.766C289.547 427.957 302.214 426.75 302.214 426.75L340.816 462.337L325.134 494.907Z" fill="#2F2E41"/>
<path d="M224.406 491.288L238.279 506.367L236.45 507.932C236.45 507.932 232.851 523.607 224.406 518.304C215.962 513.002 215.359 511.796 215.359 511.796C215.359 511.796 191.233 517.224 188.82 507.573C186.408 497.923 193.042 499.732 193.042 499.732L199.067 503.351L224.406 491.288Z" fill="#2F2E41"/>
<path d="M383.037 380.307C393.697 380.307 402.338 371.666 402.338 361.006C402.338 350.347 393.697 341.705 383.037 341.705C372.377 341.705 363.736 350.347 363.736 361.006C363.736 371.666 372.377 380.307 383.037 380.307Z" fill="#FFB6B6"/>
<path d="M378.513 388.45L406.258 380.006C406.258 380.006 417.115 405.338 415.306 416.798C413.496 428.258 397.011 482.856 397.011 482.856L360.418 462.638C360.418 462.638 359.815 450.575 358.006 445.147C356.196 439.718 350.466 423.131 363.133 409.259C375.799 395.386 378.513 388.45 378.513 388.45Z" fill="#E6E6E6"/>
<path d="M317.448 515.102C312.932 520.511 312.063 527.226 315.507 530.099C318.95 532.972 325.4 530.916 329.916 525.503C331.75 523.366 333.045 520.821 333.694 518.081L352.536 494.918L343.358 487.491L324.077 510.056C321.496 511.184 319.223 512.914 317.448 515.102Z" fill="#FFB6B6"/>
<path d="M399.795 400.619L406.353 426.595L374.256 477.974L341.49 510.905L330.87 502.094L363.915 460.977L388.963 408L399.795 400.619Z" fill="#E6E6E6"/>
<path d="M365.244 357.689C370.194 357.677 370.475 357.71 371.275 357.689C377.415 357.527 379.02 355.112 382.132 355.276C387.686 355.57 380.356 383.417 377.307 396.291C374.317 408.917 384.422 420.231 385.148 421.02C395.405 432.175 413.421 434.215 416.512 429.465C419.014 425.62 410.146 419.774 412.29 411.37C414.385 403.155 424.061 404.03 426.766 396.291C429.598 388.186 420.08 384.099 414.099 364.324C410.665 352.967 411.273 350.851 408.068 343.816C399.502 325.014 357.514 333.02 362.228 350.451C363.14 353.823 360.713 357.7 365.244 357.689Z" fill="#2F2E41"/>
<path d="M426.876 128.561H224.026C218.289 128.561 213.622 123.894 213.622 118.157V10.4035C213.622 4.66733 218.289 0 224.026 0H426.876C432.613 0 437.28 4.66732 437.28 10.4035V118.157C437.28 123.894 432.613 128.561 426.876 128.561Z" fill="white"/>
<path d="M426.876 128.561H224.026C218.289 128.561 213.622 123.894 213.622 118.157V10.4035C213.622 4.66733 218.289 0 224.026 0H426.876C432.613 0 437.28 4.66732 437.28 10.4035V118.157C437.28 123.894 432.613 128.561 426.876 128.561ZM224.026 1.73731C219.247 1.73731 215.36 5.62505 215.36 10.4035V118.157C215.36 122.936 219.247 126.824 224.026 126.824H426.876C431.655 126.824 435.543 122.936 435.543 118.157V10.4035C435.543 5.62505 431.655 1.73731 426.876 1.73731H224.026Z" fill="#3F3D56"/>
<path d="M411.22 13.0298C412.659 13.0298 413.826 11.8631 413.826 10.4239C413.826 8.98463 412.659 7.8179 411.22 7.8179C409.781 7.8179 408.614 8.98463 408.614 10.4239C408.614 11.8631 409.781 13.0298 411.22 13.0298Z" fill="#3F3D56"/>
<path d="M418.169 13.0298C419.609 13.0298 420.775 11.8631 420.775 10.4239C420.775 8.98463 419.609 7.8179 418.169 7.8179C416.73 7.8179 415.563 8.98463 415.563 10.4239C415.563 11.8631 416.73 13.0298 418.169 13.0298Z" fill="#3F3D56"/>
<path d="M425.119 13.0298C426.558 13.0298 427.725 11.8631 427.725 10.4239C427.725 8.98463 426.558 7.8179 425.119 7.8179C423.679 7.8179 422.513 8.98463 422.513 10.4239C422.513 11.8631 423.679 13.0298 425.119 13.0298Z" fill="#3F3D56"/>
<path d="M228.389 52.5536C227.671 52.5536 227.086 53.1381 227.086 53.8566C227.086 54.2069 227.222 54.531 227.467 54.7702C227.715 55.0238 228.039 55.1595 228.389 55.1595H423.381C424.1 55.1595 424.684 54.5751 424.684 53.8566C424.684 53.5062 424.549 53.1822 424.303 52.943C424.056 52.6893 423.731 52.5536 423.381 52.5536H228.389Z" fill="#E6E6E6"/>
<path d="M399.059 52.1193V55.5939H228.389C227.912 55.5939 227.477 55.4028 227.165 55.0814C226.843 54.7687 226.652 54.3344 226.652 53.8566C226.652 52.9011 227.434 52.1193 228.389 52.1193H399.059Z" fill="#4B83A7"/>
<path d="M421.21 45.6044H403.837C401.921 45.6044 400.362 44.046 400.362 42.1297C400.362 40.2134 401.921 38.6551 403.837 38.6551H421.21C423.126 38.6551 424.684 40.2134 424.684 42.1297C424.684 44.046 423.126 45.6044 421.21 45.6044Z" fill="#E6E6E6"/>
<path d="M307.416 27.3626H229.692C227.777 27.3626 226.218 25.8043 226.218 23.888C226.218 21.9717 227.777 20.4134 229.692 20.4134H307.416C309.332 20.4134 310.891 21.9717 310.891 23.888C310.891 25.8043 309.332 27.3626 307.416 27.3626Z" fill="#E6E6E6"/>
<path d="M228.389 91.6431C227.671 91.6431 227.086 92.2275 227.086 92.946C227.086 93.2964 227.222 93.6204 227.467 93.8597C227.715 94.1133 228.039 94.249 228.389 94.249H423.381C424.1 94.249 424.684 93.6645 424.684 92.946C424.684 92.5957 424.549 92.2717 424.303 92.0324C424.056 91.7788 423.731 91.6431 423.381 91.6431H228.389Z" fill="#E6E6E6"/>
<path d="M332.173 91.2087V94.6834H228.389C227.912 94.6834 227.477 94.4922 227.165 94.1708C226.843 93.8581 226.652 93.4238 226.652 92.946C226.652 91.9905 227.434 91.2087 228.389 91.2087H332.173Z" fill="#4B83A7"/>
<path d="M421.21 84.6938H403.837C401.921 84.6938 400.362 83.1355 400.362 81.2192C400.362 79.3029 401.921 77.7446 403.837 77.7446H421.21C423.126 77.7446 424.684 79.3029 424.684 81.2192C424.684 83.1355 423.126 84.6938 421.21 84.6938Z" fill="#E6E6E6"/>
</g>
<defs>
<clipPath id="clip0_101_373">
<rect width="524.67" height="531.397" fill="white"/>
</clipPath>
</defs>
</svg>

