<svg width="762" height="438" viewBox="0 0 762 438" fill="none" xmlns="http://www.w3.org/2000/svg">
<g clip-path="url(#clip0_101_689)">
<path d="M165.104 388.793C186.99 388.793 204.733 371.043 204.733 349.149C204.733 327.254 186.99 309.505 165.104 309.505C143.218 309.505 125.476 327.254 125.476 349.149C125.476 371.043 143.218 388.793 165.104 388.793Z" fill="#F2F2F2"/>
<path d="M171.548 382.991C193.434 382.991 211.176 365.242 211.176 343.347C211.176 321.452 193.434 303.703 171.548 303.703C149.662 303.703 131.92 321.452 131.92 343.347C131.92 365.242 149.662 382.991 171.548 382.991Z" fill="#F9A826"/>
<path d="M693.771 299.482H203.463V300.82H693.771V299.482Z" fill="#3F3D56"/>
<path d="M457.394 12.4815H283.365V8.89319H204.453V12.4815H29.7062C28.1603 12.4815 26.6296 12.7861 25.2014 13.3779C23.7731 13.9697 22.4754 14.8372 21.3823 15.9307C20.2892 17.0242 19.4221 18.3225 18.8305 19.7512C18.2389 21.18 17.9344 22.7114 17.9344 24.2579V262.651C17.9344 265.774 19.1747 268.769 21.3823 270.978C23.59 273.186 26.5842 274.427 29.7062 274.427H457.394C460.516 274.427 463.51 273.186 465.718 270.978C467.926 268.769 469.166 265.774 469.166 262.651V24.2579C469.166 22.7114 468.861 21.18 468.27 19.7512C467.678 18.3225 466.811 17.0242 465.718 15.9307C464.625 14.8372 463.327 13.9697 461.899 13.3779C460.471 12.7861 458.94 12.4815 457.394 12.4815Z" fill="#3F3D56"/>
<path d="M453.384 33.2936H33.7168V270.121H453.384V33.2936Z" fill="#F9A826"/>
<path d="M243.191 26.8346C245.569 26.8346 247.496 24.9068 247.496 22.5287C247.496 20.1506 245.569 18.2227 243.191 18.2227C240.814 18.2227 238.887 20.1506 238.887 22.5287C238.887 24.9068 240.814 26.8346 243.191 26.8346Z" fill="#F9A826"/>
<path opacity="0.1" d="M333.366 270.121H33.7169V33.2938L333.366 270.121Z" fill="black"/>
<path d="M99.3821 252.399C121.661 252.399 139.722 234.332 139.722 212.044C139.722 189.756 121.661 171.688 99.3821 171.688C77.1032 171.688 59.0425 189.756 59.0425 212.044C59.0425 234.332 77.1032 252.399 99.3821 252.399Z" fill="#F2F2F2"/>
<path d="M380.313 161.017H341.111V169.211H380.313V161.017Z" fill="#3F3D56"/>
<path d="M427.705 97.2162H293.718V100.728H427.705V97.2162Z" fill="#3F3D56"/>
<path d="M427.705 108.337H293.718V111.849H427.705V108.337Z" fill="#3F3D56"/>
<path d="M427.705 119.458H293.718V122.97H427.705V119.458Z" fill="#3F3D56"/>
<path d="M427.705 130.58H293.718V134.092H427.705V130.58Z" fill="#3F3D56"/>
<path d="M427.705 141.701H293.718V145.213H427.705V141.701Z" fill="#3F3D56"/>
<path d="M427.705 38.0983H411.323V54.4874H427.705V38.0983Z" fill="#F2F2F2"/>
<path d="M435.312 62.0966H415.418V42.1956H435.312V62.0966ZM416.283 61.2314H434.447V43.0609H416.283V61.2314Z" fill="#3F3D56"/>
<path d="M480.949 265.815H439.992V262.863C439.992 262.786 439.977 262.71 439.948 262.639C439.919 262.568 439.875 262.504 439.821 262.449C439.767 262.395 439.702 262.352 439.631 262.322C439.56 262.293 439.484 262.278 439.407 262.278H425.365C425.288 262.278 425.212 262.293 425.141 262.322C425.07 262.352 425.006 262.395 424.951 262.449C424.897 262.504 424.854 262.568 424.825 262.639C424.795 262.71 424.78 262.786 424.78 262.863V265.815H416.004V262.863C416.004 262.786 415.988 262.71 415.959 262.639C415.93 262.568 415.887 262.504 415.832 262.449C415.778 262.395 415.713 262.352 415.642 262.322C415.571 262.293 415.495 262.278 415.418 262.278H401.376C401.299 262.278 401.223 262.293 401.152 262.322C401.081 262.352 401.017 262.395 400.962 262.449C400.908 262.504 400.865 262.568 400.836 262.639C400.806 262.71 400.791 262.786 400.791 262.863V265.815H392.015V262.863C392.015 262.786 391.999 262.71 391.97 262.639C391.941 262.568 391.898 262.504 391.843 262.449C391.789 262.395 391.724 262.352 391.653 262.322C391.582 262.293 391.506 262.278 391.43 262.278H377.387C377.31 262.278 377.234 262.293 377.163 262.322C377.092 262.352 377.028 262.395 376.973 262.449C376.919 262.504 376.876 262.568 376.847 262.639C376.817 262.71 376.802 262.786 376.802 262.863V265.815H368.026V262.863C368.026 262.786 368.011 262.71 367.981 262.639C367.952 262.568 367.909 262.504 367.854 262.449C367.8 262.395 367.735 262.352 367.664 262.322C367.593 262.293 367.517 262.278 367.441 262.278H353.398C353.321 262.278 353.245 262.293 353.174 262.322C353.103 262.352 353.039 262.395 352.984 262.449C352.93 262.504 352.887 262.568 352.858 262.639C352.828 262.71 352.813 262.786 352.813 262.863V265.815H344.037V262.863C344.037 262.786 344.022 262.71 343.992 262.639C343.963 262.568 343.92 262.504 343.865 262.449C343.811 262.395 343.747 262.352 343.676 262.322C343.605 262.293 343.528 262.278 343.452 262.278H329.409C329.332 262.278 329.256 262.293 329.185 262.322C329.114 262.352 329.05 262.395 328.996 262.449C328.941 262.504 328.898 262.568 328.869 262.639C328.839 262.71 328.824 262.786 328.824 262.863V265.815H320.048V262.863C320.048 262.786 320.033 262.71 320.003 262.639C319.974 262.568 319.931 262.504 319.876 262.449C319.822 262.395 319.758 262.352 319.687 262.322C319.616 262.293 319.539 262.278 319.463 262.278H305.42C305.344 262.278 305.267 262.293 305.196 262.322C305.125 262.352 305.061 262.395 305.007 262.449C304.952 262.504 304.909 262.568 304.88 262.639C304.85 262.71 304.835 262.786 304.835 262.863V265.815H296.059V262.863C296.059 262.786 296.044 262.71 296.014 262.639C295.985 262.568 295.942 262.504 295.887 262.449C295.833 262.395 295.769 262.352 295.698 262.322C295.627 262.293 295.551 262.278 295.474 262.278H185.476C185.399 262.278 185.323 262.293 185.252 262.322C185.181 262.352 185.116 262.395 185.062 262.449C185.008 262.504 184.964 262.568 184.935 262.639C184.906 262.71 184.89 262.786 184.89 262.863V265.815H176.114V262.863C176.114 262.786 176.099 262.71 176.069 262.639C176.04 262.568 175.997 262.504 175.943 262.449C175.888 262.395 175.824 262.352 175.753 262.322C175.682 262.293 175.606 262.278 175.529 262.278H161.487C161.41 262.278 161.334 262.293 161.263 262.322C161.192 262.352 161.127 262.395 161.073 262.449C161.019 262.504 160.975 262.568 160.946 262.639C160.917 262.71 160.902 262.786 160.902 262.863V265.815H152.125V262.863C152.125 262.786 152.11 262.71 152.081 262.639C152.051 262.568 152.008 262.504 151.954 262.449C151.899 262.395 151.835 262.352 151.764 262.322C151.693 262.293 151.617 262.278 151.54 262.278H137.498C137.421 262.278 137.345 262.293 137.274 262.322C137.203 262.352 137.138 262.395 137.084 262.449C137.03 262.504 136.986 262.568 136.957 262.639C136.928 262.71 136.913 262.786 136.913 262.863V265.815H128.136V262.863C128.136 262.786 128.121 262.71 128.092 262.639C128.062 262.568 128.019 262.504 127.965 262.449C127.91 262.395 127.846 262.352 127.775 262.322C127.704 262.293 127.628 262.278 127.551 262.278H113.509C113.432 262.278 113.356 262.293 113.285 262.322C113.214 262.352 113.149 262.395 113.095 262.449C113.041 262.504 112.998 262.568 112.968 262.639C112.939 262.71 112.924 262.786 112.924 262.863V265.815H104.147V262.863C104.147 262.786 104.132 262.71 104.103 262.639C104.073 262.568 104.03 262.504 103.976 262.449C103.921 262.395 103.857 262.352 103.786 262.322C103.715 262.293 103.639 262.278 103.562 262.278H89.5198C89.4429 262.278 89.3668 262.293 89.2958 262.322C89.2248 262.352 89.1603 262.395 89.106 262.449C89.0517 262.504 89.0086 262.568 88.9792 262.639C88.9498 262.71 88.9346 262.786 88.9347 262.863V265.815H80.1582V262.863C80.1582 262.786 80.1431 262.71 80.1137 262.639C80.0843 262.568 80.0412 262.504 79.9868 262.449C79.9325 262.395 79.868 262.352 79.797 262.322C79.726 262.293 79.65 262.278 79.5731 262.278H65.5308C65.454 262.278 65.3779 262.293 65.3069 262.322C65.2359 262.352 65.1714 262.395 65.1171 262.449C65.0627 262.504 65.0196 262.568 64.9902 262.639C64.9608 262.71 64.9457 262.786 64.9457 262.863V265.815H56.1693V262.863C56.1693 262.786 56.1541 262.71 56.1247 262.639C56.0953 262.568 56.0522 262.504 55.9979 262.449C55.9436 262.395 55.8791 262.352 55.8081 262.322C55.7371 262.293 55.661 262.278 55.5842 262.278H41.5418C41.465 262.278 41.3889 262.293 41.3179 262.322C41.2469 262.352 41.1824 262.395 41.1281 262.449C41.0738 262.504 41.0307 262.568 41.0013 262.639C40.9719 262.71 40.9568 262.786 40.9568 262.863V265.815H14.0423C10.3181 265.815 6.74635 267.295 4.1129 269.93C1.47946 272.564 3.5481e-06 276.137 0 279.863V286.215C1.06443e-05 289.941 1.47947 293.514 4.11291 296.148C6.74636 298.783 10.3181 300.263 14.0423 300.263H480.949C484.673 300.263 488.245 298.783 490.879 296.148C493.512 293.514 494.992 289.941 494.992 286.215V279.863C494.992 276.137 493.512 272.564 490.879 269.93C488.245 267.295 484.673 265.815 480.949 265.815Z" fill="#3F3D56"/>
<path d="M109.147 237.249C99.092 237.249 89.2632 234.267 80.9031 228.678C72.543 223.09 66.0271 215.147 62.1793 205.855C58.3316 196.562 57.3249 186.336 59.2864 176.471C61.248 166.606 66.0897 157.544 73.1994 150.431C80.3091 143.319 89.3674 138.475 99.2288 136.513C109.09 134.551 119.312 135.558 128.601 139.407C137.89 143.256 145.83 149.775 151.416 158.138C157.002 166.501 159.984 176.334 159.984 186.393C159.968 199.876 154.607 212.803 145.077 222.337C135.546 231.871 122.625 237.234 109.147 237.249ZM109.147 136.874C99.3566 136.874 89.7864 139.778 81.6463 145.219C73.5062 150.661 67.1618 158.394 63.4153 167.443C59.6688 176.491 58.6886 186.447 60.5985 196.053C62.5085 205.659 67.2228 214.482 74.1454 221.407C81.068 228.333 89.8879 233.049 99.4898 234.96C109.092 236.87 119.044 235.89 128.089 232.142C137.134 228.394 144.865 222.047 150.304 213.904C155.743 205.76 158.646 196.186 158.646 186.393C158.631 173.264 153.411 160.677 144.131 151.394C134.852 142.111 122.27 136.889 109.147 136.874Z" fill="#3F3D56"/>
<path d="M562.666 21.7769H392.094V23.1153H562.666V21.7769Z" fill="#3F3D56"/>
<path d="M762 375.098H271.691V376.436H762V375.098Z" fill="#3F3D56"/>
<path d="M299.451 436.662H128.88V438H299.451V436.662Z" fill="#3F3D56"/>
<path d="M333.785 368.043H315.055V386.78H333.785V368.043Z" fill="#F9A826"/>
<path d="M345.156 376.073H322.413V353.321H345.156V376.073ZM323.402 375.084H344.167V354.31H323.402V375.084Z" fill="#3F3D56"/>
<path d="M551.18 14.7217H532.45V33.4585H551.18V14.7217Z" fill="#F9A826"/>
<path d="M562.551 22.7517H539.808V0H562.551V22.7517ZM540.797 21.7625H561.562V0.989208H540.797V21.7625Z" fill="#3F3D56"/>
<path d="M739.812 368.043H721.082V386.78H739.812V368.043Z" fill="#F9A826"/>
<path d="M751.183 376.073H728.44V353.321H751.183V376.073ZM729.429 375.084H750.194V354.31H729.429V375.084Z" fill="#3F3D56"/>
<path d="M707.15 155.219H705.559V111.615C705.559 108.301 704.906 105.019 703.639 101.957C702.371 98.8955 700.512 96.1134 698.17 93.7699C695.827 91.4265 693.046 89.5675 689.986 88.2993C686.925 87.031 683.645 86.3782 680.332 86.3782H587.987C584.674 86.3782 581.393 87.031 578.333 88.2992C575.272 89.5675 572.491 91.4265 570.148 93.7699C567.806 96.1134 565.948 98.8955 564.68 101.957C563.412 105.019 562.76 108.301 562.76 111.615V350.831C562.76 354.145 563.412 357.426 564.68 360.488C565.948 363.55 567.806 366.332 570.148 368.676C572.491 371.019 575.272 372.878 578.333 374.146C581.393 375.415 584.674 376.067 587.987 376.067H680.332C683.645 376.067 686.925 375.415 689.986 374.146C693.046 372.878 695.827 371.019 698.17 368.676C700.513 366.332 702.371 363.55 703.639 360.488C704.906 357.426 705.559 354.145 705.559 350.831V186.257H707.15V155.219Z" fill="#3F3D56"/>
<path d="M700.187 113.098V351.965C700.188 356.964 698.203 361.758 694.671 365.293C691.138 368.828 686.347 370.815 681.35 370.815H588.559C583.563 370.815 578.771 368.828 575.239 365.293C571.706 361.758 569.722 356.964 569.723 351.965V113.098C569.723 108.101 571.708 103.308 575.241 99.7744C578.773 96.2407 583.564 94.2552 588.559 94.2546H599.817C599.263 95.6141 599.052 97.0891 599.202 98.5495C599.352 100.01 599.858 101.411 600.677 102.629C601.496 103.848 602.602 104.846 603.897 105.536C605.192 106.227 606.637 106.588 608.105 106.587H661.009C662.476 106.588 663.921 106.227 665.217 105.536C666.512 104.846 667.618 103.848 668.436 102.63C669.255 101.411 669.762 100.01 669.912 98.5495C670.062 97.0891 669.851 95.6141 669.296 94.2546H681.35C686.346 94.2552 691.137 96.2407 694.669 99.7744C698.201 103.308 700.186 108.101 700.187 113.098Z" fill="#F9A826"/>
<path d="M648.776 251.753H621.134V259.948H648.776V251.753Z" fill="#3F3D56"/>
<path d="M682.193 187.953H587.716V191.465H682.193V187.953Z" fill="#3F3D56"/>
<path d="M682.193 199.074H587.716V202.586H682.193V199.074Z" fill="#3F3D56"/>
<path d="M682.193 210.195H587.716V213.707H682.193V210.195Z" fill="#3F3D56"/>
<path d="M682.193 221.316H587.716V224.828H682.193V221.316Z" fill="#3F3D56"/>
<path d="M682.193 232.438H587.716V235.949H682.193V232.438Z" fill="#3F3D56"/>
<path d="M638.255 141.314H621.872V157.703H638.255V141.314Z" fill="#F2F2F2"/>
<path d="M628.144 145.413V165.314H648.037V145.413H628.144ZM647.174 164.45H629.007V146.276H647.174V164.45Z" fill="#3F3D56"/>
<path opacity="0.1" d="M700.187 326.456V351.965C700.188 356.964 698.203 361.758 694.671 365.293C691.138 368.828 686.347 370.815 681.35 370.815H588.559C583.563 370.815 578.771 368.828 575.239 365.293C571.706 361.758 569.722 356.964 569.723 351.965V223.344L647.898 285.128L649.236 286.186L663.778 297.675L665.136 298.753L700.187 326.456Z" fill="black"/>
<path d="M626.928 363.074C643.134 363.074 656.271 349.932 656.271 333.719C656.271 317.507 643.134 304.364 626.928 304.364C610.722 304.364 597.584 317.507 597.584 333.719C597.584 349.932 610.722 363.074 626.928 363.074Z" fill="#F2F2F2"/>
<path d="M214.165 438C202.655 438 191.404 434.586 181.834 428.189C172.264 421.792 164.805 412.699 160.4 402.061C155.995 391.423 154.843 379.718 157.088 368.425C159.334 357.131 164.876 346.758 173.015 338.616C181.154 330.474 191.523 324.93 202.812 322.683C214.101 320.437 225.802 321.59 236.435 325.996C247.069 330.403 256.158 337.864 262.552 347.438C268.947 357.012 272.36 368.268 272.36 379.782C272.343 395.217 266.206 410.015 255.296 420.929C244.386 431.843 229.594 437.983 214.165 438ZM214.165 322.903C202.92 322.903 191.927 326.239 182.577 332.489C173.227 338.739 165.939 347.622 161.636 358.016C157.333 368.409 156.207 379.845 158.4 390.879C160.594 401.912 166.009 412.047 173.961 420.002C181.913 427.957 192.044 433.374 203.073 435.569C214.102 437.763 225.534 436.637 235.923 432.332C246.313 428.027 255.193 420.737 261.44 411.383C267.688 402.029 271.022 391.032 271.022 379.782C271.005 364.702 265.009 350.245 254.35 339.581C243.691 328.918 229.239 322.92 214.165 322.903Z" fill="#3F3D56"/>
<path d="M635.577 356.361C628.3 356.361 621.187 354.203 615.137 350.159C609.087 346.115 604.372 340.367 601.587 333.642C598.803 326.916 598.074 319.516 599.494 312.377C600.913 305.238 604.417 298.68 609.562 293.533C614.708 288.385 621.263 284.88 628.399 283.46C635.536 282.04 642.933 282.769 649.656 285.554C656.378 288.34 662.124 293.057 666.166 299.11C670.209 305.162 672.367 312.278 672.367 319.557C672.356 329.315 668.476 338.67 661.579 345.569C654.682 352.469 645.331 356.35 635.577 356.361ZM635.577 284.091C628.565 284.091 621.711 286.171 615.881 290.068C610.051 293.965 605.507 299.504 602.823 305.985C600.14 312.465 599.438 319.596 600.806 326.476C602.174 333.356 605.55 339.675 610.508 344.635C615.466 349.595 621.783 352.973 628.66 354.342C635.537 355.71 642.666 355.008 649.144 352.323C655.622 349.639 661.159 345.093 665.054 339.261C668.95 333.429 671.029 326.572 671.029 319.557C671.018 310.154 667.28 301.139 660.634 294.491C653.987 287.842 644.976 284.102 635.577 284.091Z" fill="#3F3D56"/>
</g>
<defs>
<clipPath id="clip0_101_689">
<rect width="762" height="438" fill="white"/>
</clipPath>
</defs>
</svg>
